<?xml version="1.0" encoding="utf-8"?>
<!-- Generator: Adobe Illustrator 26.0.2, SVG Export Plug-In . SVG Version: 6.00 Build 0)  -->
<svg version="1.1" id="Layer_1" xmlns="http://www.w3.org/2000/svg" xmlns:xlink="http://www.w3.org/1999/xlink" x="0px" y="0px"
	 viewBox="0 0 500 333" style="enable-background:new 0 0 500 333;" xml:space="preserve">
<style type="text/css">
	.st0{opacity:0.2;fill-rule:evenodd;clip-rule:evenodd;fill:#58595B;enable-background:new    ;}
	.st1{opacity:0.2;fill-rule:evenodd;clip-rule:evenodd;fill:#A6A8AB;enable-background:new    ;}
	.st2{opacity:0.2;fill-rule:evenodd;clip-rule:evenodd;fill:#EC1C24;enable-background:new    ;}
	.st3{opacity:0.2;fill:#A7A9AC;enable-background:new    ;}
	.st4{opacity:0.2;fill:#58595B;enable-background:new    ;}
	.st5{opacity:0.2;enable-background:new    ;}
</style>
<path class="st0" d="M147,152.3c25.1,0,50.3,0,75.4,0c0-1,0-1.9,0-2.9c-11,0.1-17.7-2.4-17.3-9.3c0-4.6,0-9.2,0-13.9
	c-15.9-10.7-25.9-21.4-29.3-32.1c17.2,19.7,48.3,31.9,76.9,47.8c28.4,15.7,52.7,28,51.3,44.1c4.8-3.1,8.9-7.2,11.4-14
	C290,129.5,172,105.4,170.2,62.8c-3.2,6.6-3.8,12.6-1.4,18c0,19.5,0,39,0,58.5c0,8.4-7.4,10.4-21.5,10
	C147.3,150.3,147.1,151.3,147,152.3"/>
<path class="st1" d="M288.7,170.3h-93.3v-13.5h-17.3v13.5V186h17.3h103.3C298.4,180.8,295.3,175.6,288.7,170.3"/>
<path class="st2" d="M349,92.2c-25.1,0-50.3,0-75.4,0c0,1,0,1.9,0,2.9c11-0.1,17.7,2.4,17.3,9.3c0,4.6,0,9.2,0,13.9
	c15.9,10.7,25.9,21.4,29.3,32.1c-17.2-19.7-48.3-31.9-76.9-47.8c-28.4-15.7-52.7-28-51.3-44.1c-4.8,3.1-8.9,7.2-11.4,14
	C205.9,115,323.9,139,325.7,181.7c3.2-6.6,3.8-12.6,1.4-18c0-19.5,0-39,0-58.5c0-8.4,7.4-10.4,21.5-10
	C348.7,94.1,348.9,93.1,349,92.2"/>
<path class="st1" d="M207.3,74.2h93.3v13.5h17.3V74.2V58.5h-17.3H197.4C197.6,63.6,200.7,68.8,207.3,74.2"/>
<path class="st3" d="M286.4,222.9h-20.3v3.3h20.5v-3.3H286.4z M266.1,233.5v3h27.2v3.7c0,1-0.4,1.8-1,2.6s-1.6,1.2-2.6,1.2h-27
	c-1,0-1.8-0.4-2.6-1.2c-0.6-0.8-1-1.6-1-2.6l0,0v-3.5V230v-3.7V223v-3.7l0,0c0-1,0.4-2,1-2.6c0.6-0.8,1.6-1,2.6-1h27
	c1,0,1.8,0.4,2.6,1c0.6,0.8,1,1.6,1,2.6v0.2v3.3v3.3v1.6v2c0,1-0.4,1.8-1,2.6s-1.6,1.2-2.6,1.2L266.1,233.5L266.1,233.5z
	 M302.3,222.7v13.8h27.2v3.7c0,1-0.4,1.8-1,2.6s-1.6,1.2-2.6,1.2h-27c-1,0-1.8-0.4-2.6-1.2c-0.6-0.8-1-1.6-1-2.6V240v-3.5v-13.8
	v-3.5V219c0-1,0.4-1.8,1-2.6s1.6-1.2,2.6-1.2h27c1,0,1.8,0.4,2.6,1.2c0.6,0.8,1,1.6,1,2.6v3.7H302.3z M331.7,201.2h6.7v14.4h20.3
	c1,0,1.8,0.4,2.4,1s1,1.6,1,2.6v21.1c0,1-0.4,1.8-1,2.6c-0.6,0.6-1.4,1-2.4,1h-3.3V223h-16.9v20.9h-6.7v-42.7H331.7z M237.3,201h10
	h6.9h10c1,0,1.8,0.4,2.6,1.2c0.6,0.8,1,1.6,1,2.6v3.7h-13.6V244h-6.9v-35.5h-13.6v-3.7c0-1,0.4-1.8,1-2.6
	C235.5,201.4,236.3,201,237.3,201z"/>
<path class="st4" d="M198.5,222.9h-20.3v3.3h20.5v-3.3H198.5z M178.2,233.5v3h27.2v3.7c0,1-0.4,1.8-1,2.6s-1.6,1.2-2.6,1.2h-27
	c-1,0-1.8-0.4-2.6-1.2c-0.6-0.8-1-1.6-1-2.6l0,0v-3.5V230v-3.7V223v-3.7l0,0c0-1,0.4-2,1-2.6c0.6-0.8,1.6-1,2.6-1h27
	c1,0,1.8,0.4,2.6,1c0.6,0.8,1,1.6,1,2.6v0.2v3.3v3.3v1.6v2c0,1-0.4,1.8-1,2.6s-1.6,1.2-2.6,1.2L178.2,233.5L178.2,233.5L178.2,233.5
	z M207.6,240v-3.5v-13.6v-3.7l0,0c0-1,0.4-2,1-2.6c0.6-0.8,1.6-1,2.6-1h27c1,0,1.8,0.4,2.6,1c0.6,0.8,1,1.6,1,2.6v0.2v3.3v13.6v3.7
	l0,0c0,1-0.4,1.8-1,2.6s-1.4,1-2.4,1l0,0h-27.2c-1,0-1.8-0.4-2.6-1.2C208,242,207.6,241.2,207.6,240L207.6,240z M214.5,222.9v13.6
	H235v-13.6H214.5z M135.3,243.7h-3.5l0,0c-1,0-1.8-0.4-2.4-1c-0.6-0.8-1-1.6-1-2.6V240v-3.5v-31.7c0-1,0.4-2,1-2.6
	c0.6-0.8,1.6-1.2,2.4-1.2h3.5c0.8,0,1.4,0.2,1.8,0.8l24.8,31.9v-25.6v-7.3h3.5l0,0c1,0,1.8,0.4,2.4,1c0.6,0.8,1,1.6,1,2.6v0.2v3.5
	V240c0,1-0.4,2-1,2.6c-0.6,0.8-1.6,1.2-2.4,1.2h-3.5v-0.2c-0.4-0.2-0.8-0.4-1.2-0.6l-25.4-32.5v26.2L135.3,243.7L135.3,243.7z"/>
<path class="st5" d="M357.9,267.2h2.2v2.6h-2.2V267.2z M352.9,254.8h2.2v15h-2.2c0-0.4,0-0.6,0-0.8c0-0.2,0-0.4,0-0.6
	c-0.4,0.6-0.6,1-1.2,1.4c-0.4,0.2-1,0.4-1.6,0.4c-1.2,0-2-0.4-2.6-1.4s-0.8-2.2-0.8-3.9c0-1.8,0.2-3.2,0.8-3.9
	c0.6-1,1.4-1.4,2.6-1.4c0.6,0,1,0.2,1.4,0.4s0.8,0.6,1,1.2v-6.3h0.4V254.8z M352.9,264.2c0-1-0.2-1.6-0.4-2.2
	c-0.4-0.6-0.8-0.8-1.4-0.8s-1,0.2-1.4,0.8c-0.2,0.6-0.4,1.4-0.4,2.6s0.2,2,0.4,2.6c0.2,0.6,0.8,0.8,1.4,0.8s1-0.2,1.4-0.8
	c0.4-0.6,0.4-1.2,0.4-2.2V264.2z M344.1,256.7v2.8h2v1.8h-2v4.9c0,0.8,0,1.2,0.2,1.6c0.2,0.2,0.4,0.4,0.8,0.4c0.2,0,0.2,0,0.4,0
	c0.2,0,0.4,0,0.4-0.2v1.8c-0.2,0-0.6,0.2-0.8,0.2c-0.2,0-0.6,0-0.8,0c-1,0-1.6-0.2-2-0.8c-0.4-0.4-0.6-1.4-0.6-3v-4.9h-1.6v-1.8h1.6
	v-2.2L344.1,256.7z M333.4,256h2.4v11.8h4.3v2h-6.7L333.4,256L333.4,256z M322,254.6h1.8c0.8,1.6,1.6,3.2,2,4.5
	c0.4,1.6,0.6,3,0.6,4.3s-0.2,2.8-0.6,4.3c-0.4,1.4-1.2,3-2,4.5H322c0.8-1.6,1.4-3,1.8-4.5c0.4-1.4,0.6-3,0.6-4.5s-0.2-3-0.6-4.5
	C323.4,257.7,322.8,256.1,322,254.6z M318.3,267.2h2.2v2.6h-2.2V267.2z M314.7,256.7v2.8h2v1.8h-2v4.9c0,0.8,0,1.2,0.2,1.6
	c0.2,0.2,0.4,0.4,0.8,0.4c0.2,0,0.2,0,0.4,0c0.2,0,0.4,0,0.4-0.2v1.8c-0.2,0-0.6,0.2-0.8,0.2s-0.6,0-0.8,0c-1,0-1.6-0.2-2-0.8
	c-0.4-0.4-0.6-1.4-0.6-3v-4.9h-1.6v-1.8h1.6v-2.2L314.7,256.7z M302.1,259.5h2.4l2,8.1l2-8.1h2.4l-3,10.2h-2.8L302.1,259.5z
	 M293.7,256h3c1.6,0,3,0.4,3.5,1c0.8,0.6,1.2,1.8,1.2,3.2s-0.4,2.6-1.2,3.2c-0.8,0.8-2,1-3.5,1h-0.8v5.5h-2.2V256z M296,257.7v4.7h1
	c0.8,0,1.4-0.2,1.6-0.6c0.4-0.4,0.6-1,0.6-1.8s-0.2-1.4-0.6-1.8s-1-0.6-1.8-0.6L296,257.7L296,257.7z M290.3,254.6h1.8
	c-0.8,1.6-1.4,3-1.8,4.3s-0.6,3-0.6,4.5s0.2,3,0.6,4.5c0.4,1.4,1,3,1.8,4.3h-1.8c-0.8-1.6-1.6-3.2-2-4.5c-0.4-1.6-0.6-3-0.6-4.3
	s0.2-2.8,0.6-4.3C288.9,257.7,289.5,256.1,290.3,254.6z M280.5,256.1l-0.2,2.2c-0.4-0.2-0.8-0.4-1.2-0.4s-0.8-0.2-1-0.2
	c-0.6,0-1.2,0.2-1.4,0.4c-0.4,0.2-0.6,0.6-0.6,1.2c0,0.4,0.2,0.8,0.4,1c0.2,0.4,0.8,0.8,1.6,1.4l0.2,0.2c1.8,1.2,2.8,2.6,2.8,4.1
	c0,1.2-0.4,2.4-1.2,3c-0.8,0.8-1.8,1.2-3.2,1.2c-0.6,0-1,0-1.6-0.2s-1-0.2-1.4-0.4l0.2-2.2c0.4,0.2,1,0.4,1.4,0.6s1,0.2,1.4,0.2
	c0.6,0,1.2-0.2,1.6-0.4c0.4-0.4,0.6-0.8,0.6-1.4c0-0.8-0.6-1.8-2-2.6c-0.2-0.2-0.4-0.2-0.4-0.2c-1-0.6-1.8-1.2-2-1.8
	c-0.4-0.6-0.6-1.2-0.6-2c0-1.2,0.4-2.2,1.2-2.8c0.8-0.8,1.8-1,3.2-1c0.4,0,0.8,0,1.4,0.2C279.7,256,280.1,256,280.5,256.1z
	 M266.1,256h2.4v11.8h4.3v2h-6.7L266.1,256L266.1,256z M257.8,256h2.8l4.1,14h-2.6l-0.8-3.3h-4.5l-1,3.3h-2.4L257.8,256z
	 M259.2,258.1l-1.8,6.3h3.5L259.2,258.1z M252.5,256.3v2.2c-0.4-0.2-0.8-0.4-1.2-0.6s-0.8-0.2-1.4-0.2c-1.2,0-2,0.4-2.8,1.4
	c-0.6,1-1,2.2-1,3.7c0,1.6,0.4,3,1,3.9c0.6,1,1.6,1.4,2.8,1.4c0.4,0,0.8,0,1.2-0.2s0.8-0.4,1.2-0.6v2.2c-0.4,0.2-0.8,0.4-1.4,0.4
	c-0.4,0-1,0.2-1.6,0.2c-1.8,0-3.3-0.6-4.3-2c-1.2-1.4-1.6-3-1.6-5.1s0.6-3.9,1.6-5.3s2.6-2,4.3-2c0.4,0,1,0,1.4,0.2
	C251.7,256,252.1,256.1,252.5,256.3z M239.3,256h2.4v14h-2.4V256z M229.2,256h8.3v2h-3v11.8h-2.4V258h-3L229.2,256L229.2,256z
	 M218.6,256h2.4v8.9c0,1.2,0.2,2,0.4,2.6c0.4,0.4,0.8,0.8,1.6,0.8s1.4-0.2,1.6-0.8c0.4-0.4,0.4-1.4,0.4-2.6V256h2.2v8.7
	c0,1.8-0.4,3.2-1.2,4.1c-0.8,0.8-1.8,1.4-3.3,1.4c-1.6,0-2.6-0.4-3.3-1.4c-0.8-0.8-1.2-2.4-1.2-4.1V256H218.6z M209.4,256h6.9v2H212
	v3.9h4.1v2H212v4.3h4.7v2h-7.1V256H209.4z M207.4,256.3v2.2c-0.4-0.2-0.8-0.4-1.2-0.6s-0.8-0.2-1.4-0.2c-1.2,0-2,0.4-2.8,1.4
	c-0.6,1-1,2.2-1,3.7c0,1.6,0.4,3,1,3.9c0.6,1,1.6,1.4,2.8,1.4c0.4,0,0.8,0,1.2-0.2s0.8-0.4,1.2-0.6v2.2c-0.4,0.2-0.8,0.4-1.4,0.4
	c-0.4,0-1,0.2-1.6,0.2c-1.8,0-3.3-0.6-4.3-2c-1.2-1.4-1.6-3-1.6-5.1s0.6-3.9,1.6-5.3s2.6-2,4.3-2c0.4,0,1,0,1.4,0.2
	C206.4,256,207,256.1,207.4,256.3z M191,256h2.8l4.1,14h-2.6l-0.8-3.5H190l-1,3.3h-2.4L191,256z M192.2,258.1l-1.8,6.3h3.5
	L192.2,258.1z M172.9,256h3.3l2.8,10.2l3-10.2h3.3v14h-2.2v-12l-3.3,12h-1.6l-3.3-12v12h-2C172.9,269.9,172.9,256,172.9,256z
	 M162.7,256h2.8c2,0,3.3,0.2,4.1,0.8c0.8,0.6,1.2,1.6,1.2,3c0,0.8-0.2,1.6-0.6,2.2c-0.4,0.6-1,1-2,1.2c0.4,0,0.8,0.2,1,0.6
	c0.2,0.2,0.4,0.8,0.8,1.6l1.6,4.9H169l-1.4-4.5c-0.2-0.8-0.4-1.2-0.6-1.4c-0.2-0.2-0.6-0.4-1.2-0.4H165v5.9h-2.4L162.7,256
	L162.7,256z M165,257.7v4.1h0.6c1,0,1.6-0.2,2-0.6s0.6-1,0.6-1.8s-0.2-1.2-0.6-1.4c-0.4-0.2-1-0.4-2-0.4
	C165.6,257.7,165,257.7,165,257.7z M154.4,256h2.8l4.1,14h-2.6l-0.8-3.5h-4.5l-1,3.3H150L154.4,256z M155.8,258.1l-2,6.3h3.5
	L155.8,258.1z M140,256h2.4v5.7h3.9V256h2.4v14h-2.4v-6.1h-3.9v6.1H140V256z M130.4,256h3c1.6,0,3,0.4,3.5,1
	c0.8,0.6,1.2,1.8,1.2,3.2s-0.4,2.6-1.2,3.2c-0.8,0.8-2,1-3.5,1h-0.8v5.5h-2.4V256H130.4z M132.9,257.7v4.7h1c0.8,0,1.4-0.2,1.6-0.6
	c0.4-0.4,0.6-1,0.6-1.8s-0.2-1.4-0.6-1.8c-0.4-0.4-1-0.6-1.8-0.6L132.9,257.7L132.9,257.7z"/>
</svg>
