<?xml version="1.0" encoding="utf-8"?>
<!-- Generator: Adobe Illustrator 26.0.2, SVG Export Plug-In . SVG Version: 6.00 Build 0)  -->
<svg version="1.1" id="Layer_1" xmlns="http://www.w3.org/2000/svg" xmlns:xlink="http://www.w3.org/1999/xlink" x="0px" y="0px"
	 viewBox="0 0 195.8 52.1" style="enable-background:new 0 0 195.8 52.1;" xml:space="preserve">
<style type="text/css">
	.st0{fill-rule:evenodd;clip-rule:evenodd;fill:#58595B;}
	.st1{fill-rule:evenodd;clip-rule:evenodd;fill:#A7A9AC;}
	.st2{fill-rule:evenodd;clip-rule:evenodd;fill:#ED1C24;}
	.st3{fill:#A7A9AC;}
	.st4{fill:#58595B;}
</style>
<path class="st0" d="M1.5,36.5c6.5,0,13,0,19.5,0c0-0.3,0-0.6,0-0.9c-2.8,0-4.6-0.7-4.5-2.8c0-1.4,0-2.8,0-4.2
	c-4.1-3.2-6.7-6.4-7.6-9.6c4.4,5.9,12.5,9.6,19.9,14.4c7.4,4.7,13.6,8.4,13.3,13.3c1.2-0.9,2.3-2.2,3-4.2C38.5,29.7,8,22.5,7.5,9.7
	c-0.8,2-1,3.8-0.4,5.4c0,5.9,0,11.7,0,17.6c0,2.5-1.9,3.1-5.6,3C1.5,35.9,1.5,36.2,1.5,36.5"/>
<path class="st1" d="M38.2,41.9H14v-4H9.5v4v4.7H14h26.7C40.7,45.1,39.9,43.5,38.2,41.9"/>
<path class="st2" d="M53.8,18.4c-6.5,0-13,0-19.5,0c0,0.3,0,0.6,0,0.9c2.8,0,4.6,0.7,4.5,2.8c0,1.4,0,2.8,0,4.2
	c4.1,3.2,6.7,6.4,7.6,9.6c-4.6-5.9-12.6-9.6-20-14.4C19,16.8,12.8,13.1,13.1,8.2c-1.2,0.9-2.3,2.2-3,4.2c6.6,12.8,37.1,20,37.6,32.8
	c0.8-2,1-3.8,0.4-5.4c0-5.9,0-11.7,0-17.6c0-2.5,1.9-3.1,5.6-3C53.7,19,53.7,18.7,53.8,18.4"/>
<path class="st1" d="M17.1,13h24.2v4h4.5v-4V8.3h-4.5H14.5C14.6,9.8,15.4,11.4,17.1,13"/>
<path class="st3" d="M144.9,21h-10.3v1.7H145L144.9,21L144.9,21z M134.6,26.4v1.5h13.8v1.9c0,0.5-0.2,0.9-0.5,1.3s-0.8,0.6-1.3,0.6
	h-13.7c-0.5,0-0.9-0.2-1.3-0.6c-0.3-0.4-0.5-0.8-0.5-1.3l0,0V28v-3.4v-1.9V21v-1.9l0,0c0-0.5,0.2-1,0.5-1.3c0.3-0.4,0.8-0.5,1.3-0.5
	h13.7c0.5,0,0.9,0.2,1.3,0.5c0.3,0.4,0.5,0.8,0.5,1.3v0.1v1.7v1.7v0.8v1c0,0.5-0.2,0.9-0.5,1.3s-0.8,0.6-1.3,0.6L134.6,26.4
	L134.6,26.4z M153,20.9v7h13.8v1.9c0,0.5-0.2,0.9-0.5,1.3s-0.8,0.6-1.3,0.6h-13.7c-0.5,0-0.9-0.2-1.3-0.6c-0.3-0.4-0.5-0.8-0.5-1.3
	v-0.1v-1.8v-7v-1.8V19c0-0.5,0.2-0.9,0.5-1.3s0.8-0.6,1.3-0.6H165c0.5,0,0.9,0.2,1.3,0.6c0.3,0.4,0.5,0.8,0.5,1.3v1.9H153z
	 M167.9,10h3.4v7.3h10.3c0.5,0,0.9,0.2,1.2,0.5s0.5,0.8,0.5,1.3v10.7c0,0.5-0.2,0.9-0.5,1.3c-0.3,0.3-0.7,0.5-1.2,0.5h-1.7V21h-8.6
	v10.6h-3.4V10z M120,9.9h5.1h3.5h5.1c0.5,0,0.9,0.2,1.3,0.6c0.3,0.4,0.5,0.8,0.5,1.3v1.9h-6.9v18h-3.5v-18h-6.9v-1.9
	c0-0.5,0.2-0.9,0.5-1.3C119.1,10.1,119.5,9.9,120,9.9z"/>
<path class="st4" d="M100.3,21H90v1.7h10.4V21H100.3z M90,26.4v1.5h13.8v1.9c0,0.5-0.2,0.9-0.5,1.3s-0.8,0.6-1.3,0.6H88.3
	c-0.5,0-0.9-0.2-1.3-0.6c-0.3-0.4-0.5-0.8-0.5-1.3l0,0V28v-3.4v-1.9V21v-1.9l0,0c0-0.5,0.2-1,0.5-1.3c0.3-0.4,0.8-0.5,1.3-0.5H102
	c0.5,0,0.9,0.2,1.3,0.5c0.3,0.4,0.5,0.8,0.5,1.3v0.1v1.7v1.7v0.8v1c0,0.5-0.2,0.9-0.5,1.3s-0.8,0.6-1.3,0.6L90,26.4L90,26.4z
	 M104.9,29.7v-1.8V21v-1.9l0,0c0-0.5,0.2-1,0.5-1.3c0.3-0.4,0.8-0.5,1.3-0.5h13.7c0.5,0,0.9,0.2,1.3,0.5c0.3,0.4,0.5,0.8,0.5,1.3
	v0.1v1.7v6.9v1.9l0,0c0,0.5-0.2,0.9-0.5,1.3s-0.7,0.5-1.2,0.5l0,0h-13.8c-0.5,0-0.9-0.2-1.3-0.6C105.1,30.7,104.9,30.3,104.9,29.7
	L104.9,29.7z M108.4,21v6.9h10.4V21H108.4z M68.2,31.6h-1.8l0,0c-0.5,0-0.9-0.2-1.2-0.5c-0.3-0.4-0.5-0.8-0.5-1.3v-0.1v-1.8V11.8
	c0-0.5,0.2-1,0.5-1.3c0.3-0.4,0.8-0.6,1.2-0.6h1.8c0.4,0,0.7,0.1,0.9,0.4l12.6,16.2v-13V9.8h1.8l0,0c0.5,0,0.9,0.2,1.2,0.5
	c0.3,0.4,0.5,0.8,0.5,1.3v0.1v1.8v16.2c0,0.5-0.2,1-0.5,1.3c-0.3,0.4-0.8,0.6-1.2,0.6h-1.8v-0.1c-0.2-0.1-0.4-0.2-0.6-0.3L68.2,14.7
	V28V31.6z"/>
<path d="M181.2,43.5h1.1v1.3h-1.1V43.5z M178.7,37.2h1.1v7.6h-1.1c0-0.2,0-0.3,0-0.4c0-0.1,0-0.2,0-0.3c-0.2,0.3-0.3,0.5-0.6,0.7
	c-0.2,0.1-0.5,0.2-0.8,0.2c-0.6,0-1-0.2-1.3-0.7s-0.4-1.1-0.4-2s0.1-1.6,0.4-2c0.3-0.5,0.7-0.7,1.3-0.7c0.3,0,0.5,0.1,0.7,0.2
	c0.2,0.1,0.4,0.3,0.5,0.6v-3.2H178.7z M178.7,42c0-0.5-0.1-0.8-0.2-1.1c-0.2-0.3-0.4-0.4-0.7-0.4s-0.5,0.1-0.7,0.4
	c-0.1,0.3-0.2,0.7-0.2,1.3s0.1,1,0.2,1.3c0.1,0.3,0.4,0.4,0.7,0.4s0.5-0.1,0.7-0.4c0.2-0.3,0.2-0.6,0.2-1.1V42z M174.2,38.2v1.4h1
	v0.9h-1V43c0,0.4,0,0.6,0.1,0.8c0.1,0.1,0.2,0.2,0.4,0.2c0.1,0,0.1,0,0.2,0c0.1,0,0.2,0,0.2-0.1v0.9c-0.1,0-0.3,0.1-0.4,0.1
	c-0.1,0-0.3,0-0.4,0c-0.5,0-0.8-0.1-1-0.4c-0.2-0.2-0.3-0.7-0.3-1.5v-2.5h-0.8v-0.9h0.8v-1.1L174.2,38.2z M168.8,37.8h1.2v6h2.2v1
	h-3.4V37.8z M163,37.1h0.9c0.4,0.8,0.8,1.6,1,2.3c0.2,0.8,0.3,1.5,0.3,2.2s-0.1,1.4-0.3,2.2c-0.2,0.7-0.6,1.5-1,2.3H163
	c0.4-0.8,0.7-1.5,0.9-2.3c0.2-0.7,0.3-1.5,0.3-2.3s-0.1-1.5-0.3-2.3C163.7,38.7,163.4,37.9,163,37.1z M161.1,43.5h1.1v1.3h-1.1V43.5
	z M159.3,38.2v1.4h1v0.9h-1V43c0,0.4,0,0.6,0.1,0.8c0.1,0.1,0.2,0.2,0.4,0.2c0.1,0,0.1,0,0.2,0c0.1,0,0.2,0,0.2-0.1v0.9
	c-0.1,0-0.3,0.1-0.4,0.1c-0.1,0-0.3,0-0.4,0c-0.5,0-0.8-0.1-1-0.4c-0.2-0.2-0.3-0.7-0.3-1.5v-2.5h-0.8v-0.9h0.8v-1.1L159.3,38.2z
	 M152.9,39.6h1.2l1,4.1l1-4.1h1.2l-1.5,5.2h-1.4L152.9,39.6z M148.6,37.8h1.5c0.8,0,1.5,0.2,1.8,0.5c0.4,0.3,0.6,0.9,0.6,1.6
	c0,0.7-0.2,1.3-0.6,1.6c-0.4,0.4-1,0.5-1.8,0.5h-0.4v2.8h-1.1V37.8z M149.8,38.7v2.4h0.5c0.4,0,0.7-0.1,0.8-0.3
	c0.2-0.2,0.3-0.5,0.3-0.9s-0.1-0.7-0.3-0.9s-0.5-0.3-0.9-0.3H149.8z M146.9,37.1h0.9c-0.4,0.8-0.7,1.5-0.9,2.2s-0.3,1.5-0.3,2.3
	s0.1,1.5,0.3,2.3c0.2,0.7,0.5,1.5,0.9,2.2h-0.9c-0.4-0.8-0.8-1.6-1-2.3c-0.2-0.8-0.3-1.5-0.3-2.2s0.1-1.4,0.3-2.2
	C146.2,38.7,146.5,37.9,146.9,37.1z M141.9,37.9l-0.1,1.1c-0.2-0.1-0.4-0.2-0.6-0.2c-0.2,0-0.4-0.1-0.5-0.1c-0.3,0-0.6,0.1-0.7,0.2
	c-0.2,0.1-0.3,0.3-0.3,0.6c0,0.2,0.1,0.4,0.2,0.5c0.1,0.2,0.4,0.4,0.8,0.7l0.1,0.1c0.9,0.6,1.4,1.3,1.4,2.1c0,0.6-0.2,1.2-0.6,1.5
	c-0.4,0.4-0.9,0.6-1.6,0.6c-0.3,0-0.5,0-0.8-0.1s-0.5-0.1-0.7-0.2l0.1-1.1c0.2,0.1,0.5,0.2,0.7,0.3s0.5,0.1,0.7,0.1
	c0.3,0,0.6-0.1,0.8-0.2c0.2-0.2,0.3-0.4,0.3-0.7c0-0.4-0.3-0.9-1-1.3c-0.1-0.1-0.2-0.1-0.2-0.1c-0.5-0.3-0.9-0.6-1-0.9
	c-0.2-0.3-0.3-0.6-0.3-1c0-0.6,0.2-1.1,0.6-1.4c0.4-0.4,0.9-0.5,1.6-0.5c0.2,0,0.4,0,0.7,0.1C141.5,37.8,141.7,37.8,141.9,37.9z
	 M134.6,37.8h1.2v6h2.2v1h-3.4V37.8z M130.4,37.8h1.4l2.1,7.1h-1.3l-0.4-1.7h-2.3l-0.5,1.7h-1.2L130.4,37.8z M131.1,38.9l-0.9,3.2
	h1.8L131.1,38.9z M127.7,38v1.1c-0.2-0.1-0.4-0.2-0.6-0.3s-0.4-0.1-0.7-0.1c-0.6,0-1,0.2-1.4,0.7c-0.3,0.5-0.5,1.1-0.5,1.9
	c0,0.8,0.2,1.5,0.5,2s0.8,0.7,1.4,0.7c0.2,0,0.4,0,0.6-0.1s0.4-0.2,0.6-0.3v1.1c-0.2,0.1-0.4,0.2-0.7,0.2c-0.2,0-0.5,0.1-0.8,0.1
	c-0.9,0-1.7-0.3-2.2-1c-0.6-0.7-0.8-1.5-0.8-2.6s0.3-2,0.8-2.7s1.3-1,2.2-1c0.2,0,0.5,0,0.7,0.1C127.3,37.8,127.5,37.9,127.7,38z
	 M121,37.8h1.2v7.1H121V37.8z M115.9,37.8h4.2v1h-1.5v6h-1.2v-6h-1.5V37.8z M110.5,37.8h1.2v4.5c0,0.6,0.1,1,0.2,1.3
	c0.2,0.2,0.4,0.4,0.8,0.4s0.7-0.1,0.8-0.4c0.2-0.2,0.2-0.7,0.2-1.3v-4.5h1.1v4.4c0,0.9-0.2,1.6-0.6,2.1c-0.4,0.4-0.9,0.7-1.7,0.7
	c-0.8,0-1.3-0.2-1.7-0.7c-0.4-0.4-0.6-1.2-0.6-2.1v-4.4H110.5z M105.8,37.8h3.5v1h-2.2v2h2.1v1h-2.1V44h2.4v1h-3.6v-7.2H105.8z
	 M104.8,38v1.1c-0.2-0.1-0.4-0.2-0.6-0.3s-0.4-0.1-0.7-0.1c-0.6,0-1,0.2-1.4,0.7c-0.3,0.5-0.5,1.1-0.5,1.9c0,0.8,0.2,1.5,0.5,2
	s0.8,0.7,1.4,0.7c0.2,0,0.4,0,0.6-0.1s0.4-0.2,0.6-0.3v1.1c-0.2,0.1-0.4,0.2-0.7,0.2c-0.2,0-0.5,0.1-0.8,0.1c-0.9,0-1.7-0.3-2.2-1
	c-0.6-0.7-0.8-1.5-0.8-2.6s0.3-2,0.8-2.7s1.3-1,2.2-1c0.2,0,0.5,0,0.7,0.1C104.3,37.8,104.6,37.9,104.8,38z M96.5,37.8h1.4l2.1,7.1
	h-1.3l-0.4-1.8H96l-0.5,1.7h-1.2L96.5,37.8z M97.1,38.9l-0.9,3.2H98L97.1,38.9z M87.3,37.8H89l1.4,5.2l1.5-5.2h1.7v7.1h-1.1v-6.1
	l-1.7,6.1H90l-1.7-6.1v6.1h-1C87.3,44.9,87.3,37.8,87.3,37.8z M82.1,37.8h1.4c1,0,1.7,0.1,2.1,0.4c0.4,0.3,0.6,0.8,0.6,1.5
	c0,0.4-0.1,0.8-0.3,1.1c-0.2,0.3-0.5,0.5-1,0.6c0.2,0,0.4,0.1,0.5,0.3c0.1,0.1,0.2,0.4,0.4,0.8l0.8,2.5h-1.3l-0.7-2.3
	c-0.1-0.4-0.2-0.6-0.3-0.7c-0.1-0.1-0.3-0.2-0.6-0.2h-0.4v3h-1.2V37.8z M83.3,38.7v2.1h0.3c0.5,0,0.8-0.1,1-0.3s0.3-0.5,0.3-0.9
	s-0.1-0.6-0.3-0.7c-0.2-0.1-0.5-0.2-1-0.2C83.6,38.7,83.3,38.7,83.3,38.7z M77.9,37.8h1.4l2.1,7.1h-1.3l-0.4-1.8h-2.3l-0.5,1.7h-1.2
	L77.9,37.8z M78.6,38.9l-1,3.2h1.8L78.6,38.9z M70.6,37.8h1.2v2.9h2v-2.9H75v7.1h-1.2v-3.1h-2v3.1h-1.2V37.8z M65.7,37.8h1.5
	c0.8,0,1.5,0.2,1.8,0.5c0.4,0.3,0.6,0.9,0.6,1.6c0,0.7-0.2,1.3-0.6,1.6c-0.4,0.4-1,0.5-1.8,0.5h-0.4v2.8h-1.2L65.7,37.8L65.7,37.8z
	 M67,38.7v2.4h0.5c0.4,0,0.7-0.1,0.8-0.3c0.2-0.2,0.3-0.5,0.3-0.9s-0.1-0.7-0.3-0.9c-0.2-0.2-0.5-0.3-0.9-0.3H67z"/>
</svg>
