<?xml version="1.0" encoding="utf-8"?>
<!-- Generator: Adobe Illustrator 26.0.2, SVG Export Plug-In . SVG Version: 6.00 Build 0)  -->
<svg version="1.1" id="Layer_1" xmlns="http://www.w3.org/2000/svg" xmlns:xlink="http://www.w3.org/1999/xlink" x="0px" y="0px"
	 viewBox="0 0 60.7 52.1" style="enable-background:new 0 0 60.7 52.1;" xml:space="preserve">
<style type="text/css">
	.st0{fill-rule:evenodd;clip-rule:evenodd;fill:#58595B;}
	.st1{fill-rule:evenodd;clip-rule:evenodd;fill:#A7A9AC;}
	.st2{fill-rule:evenodd;clip-rule:evenodd;fill:#ED1C24;}
</style>
<path class="st0" d="M4.1,36c6.5,0,13,0,19.5,0c0-0.3,0-0.6,0-0.9c-2.8,0-4.6-0.7-4.5-2.8c0-1.4,0-2.8,0-4.2
	c-4.1-3.2-6.7-6.4-7.6-9.6c4.4,5.9,12.5,9.6,19.9,14.4c7.4,4.7,13.6,8.4,13.3,13.3c1.2-0.9,2.3-2.2,3-4.2
	c-6.6-12.8-37.1-20-37.6-32.8c-0.8,2-1,3.8-0.4,5.4c0,5.9,0,11.7,0,17.6c0,2.5-1.9,3.1-5.6,3C4.1,35.4,4.1,35.7,4.1,36"/>
<path class="st1" d="M40.8,41.4H16.6v-4h-4.5v4v4.7h4.5h26.7C43.3,44.6,42.5,43,40.8,41.4"/>
<path class="st2" d="M56.4,17.9c-6.5,0-13,0-19.5,0c0,0.3,0,0.6,0,0.9c2.8,0,4.6,0.7,4.5,2.8c0,1.4,0,2.8,0,4.2
	c4.1,3.2,6.7,6.4,7.6,9.6C44.4,29.5,36.4,25.8,29,21c-7.4-4.7-13.6-8.4-13.3-13.3c-1.2,0.9-2.3,2.2-3,4.2
	c6.6,12.8,37.1,20,37.6,32.8c0.8-2,1-3.8,0.4-5.4c0-5.9,0-11.7,0-17.6c0-2.5,1.9-3.1,5.6-3C56.3,18.5,56.3,18.2,56.4,17.9"/>
<path class="st1" d="M19.7,12.5h24.2v4h4.5v-4V7.8h-4.5H17.1C17.2,9.3,18,10.9,19.7,12.5"/>
</svg>
