<?xml version="1.0" encoding="utf-8"?>
<!-- Generator: Adobe Illustrator 19.0.0, SVG Export Plug-In . SVG Version: 6.00 Build 0)  -->
<svg version="1.1" id="Layer_1" xmlns="http://www.w3.org/2000/svg" xmlns:xlink="http://www.w3.org/1999/xlink" x="0px" y="0px"
	 viewBox="-225 227 48 48" style="enable-background:new -225 227 48 48;" xml:space="preserve">
<style type="text/css">
	.st0{fill:#CCCCCC;}
	.st1{fill:none;}
</style>
<path class="st0" d="M-210.2,239.1l9.7,9.7c1.2,1.2,1.2,3.1,0,4.3l-9.7,9.7c-1.2,1.2-1.2,3.1,0,4.3h0c1.2,1.2,3.1,1.2,4.3,0l14-14
	c1.2-1.2,1.2-3.1,0-4.3l-14-14c-1.2-1.2-3.1-1.2-4.3,0h0C-211.3,236-211.3,238-210.2,239.1z"/>
<path class="st1" d="M-498,668.4v-41.9c0-1.7,1.4-3,3-3h41.9c1.7,0,3,1.4,3,3v41.9c0,1.7-1.4,3-3,3H-495
	C-496.6,671.4-498,670-498,668.4z"/>
</svg>
