<?xml version="1.0" encoding="utf-8"?>
<!-- Generator: Adobe Illustrator 19.0.0, SVG Export Plug-In . SVG Version: 6.00 Build 0)  -->
<svg version="1.1" id="Layer_1" xmlns="http://www.w3.org/2000/svg" xmlns:xlink="http://www.w3.org/1999/xlink" x="0px" y="0px"
	 viewBox="-41 164.9 512 512" style="enable-background:new -41 164.9 512 512;" xml:space="preserve">
<style type="text/css">
	.st0{fill:#CCCCCC;}
</style>
<g>
	<g>
		<path class="st0" d="M375,164.9h-64v64h64V164.9z M439,164.9h-32v96H279v-96H151v96H23v-96H-9c-17.7,0-32,14.3-32,32v448
			c0,17.7,14.3,32,32,32h448c17.7,0,32-14.3,32-32v-448C471,179.2,456.7,164.9,439,164.9z M407,612.9H23v-288h384V612.9z M119,164.9
			H55v64h64V164.9z M247,388.9h-64v64h64V388.9z M343,388.9h-64v64h64V388.9z M151,484.9H87v64h64V484.9z M151,388.9H87v64h64V388.9
			z M247,484.9h-64v64h64V484.9z M343,484.9h-64v64h64V484.9z"/>
	</g>
</g>
</svg>
