<?xml version="1.0" encoding="utf-8"?>
<!-- Generator: Adobe Illustrator 19.0.0, SVG Export Plug-In . SVG Version: 6.00 Build 0)  -->
<svg version="1.1" id="Layer_1" xmlns="http://www.w3.org/2000/svg" xmlns:xlink="http://www.w3.org/1999/xlink" x="0px" y="0px"
	 viewBox="6 -70 512 516" style="enable-background:new 6 -70 512 516;" xml:space="preserve">
<style type="text/css">
	.st0{fill:#999999;}
</style>
<title>Edit</title>
<path class="st0" d="M262-68C120.6-68,6,46.6,6,188s114.6,256,256,256s256-114.6,256-256S403.4-68,262-68z M385,119.3L211.8,292.5
	c-0.2,0.2-0.5,0.4-0.8,0.4l0.2,0.2L137,313l19.9-74.2l0.2,0.2c0-0.3,0.2-0.6,0.4-0.8l17.4-17.4L328.2,67.5l2.5-2.5
	c0.4-0.4,0.9-0.5,1.5-0.3c6-3,13.3-1.9,18,2.9l32.3,32.3c4.8,4.7,5.9,12,2.9,18C385.5,118.4,385.4,118.9,385,119.3z"/>
</svg>
