<?xml version="1.0" encoding="utf-8"?>
<!-- Generator: Adobe Illustrator 19.0.0, SVG Export Plug-In . SVG Version: 6.00 Build 0)  -->
<svg version="1.1" id="Layer_1" xmlns="http://www.w3.org/2000/svg" xmlns:xlink="http://www.w3.org/1999/xlink" x="0px" y="0px"
	 viewBox="128 -128 512 512" style="enable-background:new 128 -128 512 512;" xml:space="preserve">
<style type="text/css">
	.st0{fill:#A3A3A3;}
</style>
<g>
	<path class="st0" d="M460.1,48.9c24.5,0,45.4,8.8,62.6,25.7c14.5,14.8,21.5,36.3,21.5,64.7v163.3h-61.4V194.4
		c0-29.3-1.5-49-3.9-58.7c-2.7-9.7-7.3-17.2-13.9-22.1c-6.7-5.1-14.8-7.6-24.5-7.6c-12.4,0-23.3,3.9-32.4,12.4s-15.1,20-18.7,34.8
		c-1.8,7.8-2.7,24.5-2.7,50.2v99.2h-62V55h62v25.7c14.2-11.8,26.9-20,38.4-24.8C436.5,51.3,448,48.9,460.1,48.9L460.1,48.9z
		 M153.7,384h460.9c13.9,0,25.4-11.5,25.4-25.4v-460.9c0-14.2-11.5-25.7-25.4-25.7H153.7c-14.2,0-25.7,11.5-25.7,25.7v460.9
		C128,372.5,139.5,384,153.7,384L153.7,384z M263.5-46.7c10.9,0,20.3,3.9,28.1,11.8c7.9,7.9,11.5,17.5,11.5,28.7
		c0,10.9-3.6,20.3-11.5,28.1c-7.6,7.9-16.9,11.5-27.8,11.5s-20.3-3.9-28.1-11.8c-7.9-7.9-11.8-17.5-11.8-29c0-10.9,3.9-20,11.5-27.8
		C243.2-42.7,252.6-46.7,263.5-46.7L263.5-46.7z M232.3,55h62v247.7h-62C232.3,302.7,232.3,55,232.3,55z"/>
</g>
</svg>
