<?xml version="1.0" encoding="utf-8"?>
<!-- Generator: Adobe Illustrator 19.0.0, SVG Export Plug-In . SVG Version: 6.00 Build 0)  -->
<svg version="1.1" id="Layer_1" xmlns="http://www.w3.org/2000/svg" xmlns:xlink="http://www.w3.org/1999/xlink" x="0px" y="0px"
	 viewBox="70 -262 640 1024" style="enable-background:new 70 -262 640 1024;" xml:space="preserve">
<style type="text/css">
	.st0{fill:#B7B7B7;}
</style>
<path class="st0" d="M646-262H134c-35.3,0-64,28.7-64,64v896c0,35.4,28.7,64,64,64h512c35.4,0,64-28.6,64-64v-896
	C710-233.3,681.4-262,646-262z M358-198h64c17.6,0,32,14.3,32,32s-14.4,32-32,32h-64c-17.7,0-32-14.3-32-32S340.3-198,358-198z
	 M422,698h-64c-17.7,0-32-14.4-32-32s14.3-32,32-32h64c17.6,0,32,14.4,32,32S439.6,698,422,698z M646,570H134V-70h512V570z"/>
</svg>
