<?xml version="1.0" encoding="utf-8"?>
<!-- Generator: Adobe Illustrator 19.0.0, SVG Export Plug-In . SVG Version: 6.00 Build 0)  -->
<svg version="1.1" id="Layer_1" xmlns="http://www.w3.org/2000/svg" xmlns:xlink="http://www.w3.org/1999/xlink" x="0px" y="0px"
	 viewBox="-199 188 100 125" style="enable-background:new -199 188 100 125;" xml:space="preserve">
<style type="text/css">
	.st0{fill:#999999;}
</style>
<path class="st0" d="M-115,235.6v-38.1c0-4.1-3.4-7.5-7.5-7.5h-53c-4.1,0-7.5,3.4-7.5,7.5v38.1c-6.8,0.1-12.2,5.7-12.2,12.5v50.5
	c0,6.9,5.6,12.5,12.5,12.5h67.4c6.9,0,12.5-5.6,12.5-12.5v-50.5C-102.8,241.3-108.2,235.7-115,235.6z M-127.3,202.2v33.4h-43.5
	v-33.4H-127.3z M-149,287c-6.8,0-12.2-5.5-12.2-12.2c0-6.8,5.5-12.2,12.2-12.2s12.2,5.5,12.2,12.2C-136.8,281.5-142.2,287-149,287z"
	/>
</svg>
