<?xml version="1.0" encoding="utf-8"?>
<!-- Generator: Adobe Illustrator 26.0.2, SVG Export Plug-In . SVG Version: 6.00 Build 0)  -->
<svg version="1.1" id="Layer_1" xmlns="http://www.w3.org/2000/svg" xmlns:xlink="http://www.w3.org/1999/xlink" x="0px" y="0px"
	 viewBox="0 0 76.8 94.1" style="enable-background:new 0 0 76.8 94.1;" xml:space="preserve">
<style type="text/css">
	.st0{fill:#ED1C24;}
	.st1{fill:#EFEFEF;}
	.st2{fill:#FFFFFF;}
	.st3{fill:#BFBFBF;}
</style>
<path class="st0" d="M44.6,8l-2.8-2.8c-0.5-0.5-1.2-1-1.9-1.3c-0.7-0.3-1.5-0.4-2.2-0.4c-0.8,0-1.5,0.1-2.2,0.4
	c-0.7,0.3-1.3,0.7-1.9,1.3L30.8,8c-1.6,1.7-4,2.6-6.3,2.3l-4-0.4c-0.8-0.1-1.5,0-2.3,0.2c-0.7,0.2-1.4,0.6-2,1.1
	c-1.2,1-1.9,2.4-2,3.9l-0.4,4.1v0c-0.2,2.4-1.4,4.5-3.4,5.8l-3.3,2.3h0c-1.3,0.8-2.1,2.2-2.4,3.7c-0.3,1.5,0,3.1,1,4.3l2.4,3.4h0
	c0.7,1,1.1,2,1.3,3.2c0.2,1.1,0.1,2.3-0.2,3.4l-1.1,3.8h0c-0.4,1.5-0.2,3.1,0.5,4.4c0.8,1.3,2,2.3,3.5,2.7l2.1,0.6c0,0,0,0,0,0
	l1.8,0.5v0c2.3,0.6,4.2,2.2,5.2,4.4l1.7,3.6v0c0.3,0.7,0.8,1.3,1.3,1.8c1.1,1,2.6,1.6,4.2,1.5c0.5,0,1-0.1,1.5-0.3c0,0,0.1,0,0.1,0
	c0.2-0.1,0.4-0.2,0.6-0.2l3.7-1.7c2.1-1,4.6-1,6.7,0l3.6,1.7c1.4,0.7,3,0.8,4.4,0.2c1.5-0.5,2.6-1.6,3.2-3l1.7-3.7
	c0.5-1.1,1.2-2,2.1-2.8c0.9-0.7,2-1.3,3.1-1.6l3.8-1c1.5-0.4,2.8-1.3,3.5-2.7c0.4-0.7,0.6-1.4,0.8-2.1c0.1-0.8,0-1.5-0.2-2.2l-1.1-4
	h0c-0.7-2.3-0.2-4.7,1.2-6.6l2.3-3.2c0.4-0.6,0.8-1.3,0.9-2.1c0.2-0.7,0.2-1.5,0-2.3c-0.1-0.7-0.4-1.5-0.8-2.1
	c-0.4-0.6-0.9-1.2-1.6-1.6L64.9,25c-2-1.3-3.2-3.5-3.4-5.9l-0.3-4c-0.2-2.3-1.8-4.3-4-5c-0.7-0.2-1.5-0.3-2.2-0.2l-4.1,0.4
	c-1.2,0.1-2.3,0-3.4-0.4C46.4,9.4,45.4,8.8,44.6,8L44.6,8z"/>
<path class="st1" d="M27.8,73.8c-0.9,0-1.9-0.2-2.8-0.5c-1-0.4-1.9-0.9-2.7-1.6c-0.8-0.7-1.4-1.6-1.8-2.5l-1.7-3.6h0
	c-0.3-0.8-0.9-1.5-1.5-2c-0.7-0.5-1.4-0.9-2.2-1.1l-1.1-0.3L1.5,84l10.5-2c0.5-0.1,1.1,0.2,1.3,0.7l3.5,10.2L27.8,73.8z"/>
<path class="st2" d="M28.3,72.3c-0.9,0-1.9-0.2-2.8-0.5c-1-0.4-1.9-0.9-2.7-1.6c-0.8-0.7-1.4-1.6-1.8-2.5l-1.7-3.6h0
	c-0.3-0.8-0.9-1.5-1.5-2c-0.7-0.5-1.4-0.9-2.2-1.1l-1.1-0.3L2.1,82.5l10.5-2c0.5-0.1,1.1,0.2,1.3,0.7l3.5,10.2L28.3,72.3z
	 M60.8,60.6l-0.9,0.2c-0.8,0.2-1.6,0.6-2.2,1.1c-0.6,0.6-1.2,1.2-1.5,2l-1.7,3.7v0c-1.3,2.8-4.2,4.6-7.3,4.6l11,19l3.5-10.2
	c0.2-0.5,0.7-0.8,1.3-0.7l10.5,2L60.8,60.6z M51.6,23.7c-4.3-4.3-10.3-6.3-16.3-5.5c-6,0.8-11.3,4.3-14.3,9.6S17.4,39.4,19.8,45
	c2.3,5.6,7.1,9.8,13,11.4c5.9,1.6,12.1,0.3,16.9-3.4c4.8-3.7,7.6-9.4,7.6-15.5C57.3,32.4,55.2,27.4,51.6,23.7L51.6,23.7z M24.1,36.2
	c-0.2-0.2-0.2-0.5-0.2-0.8c0-0.3,0.2-0.5,0.4-0.7c0.5-0.4,1.2-0.3,1.5,0.2l6.5,8.6l17.5-14.3c0.2-0.2,0.5-0.3,0.8-0.3
	c0.3,0,0.6,0.2,0.8,0.4c0.2,0.2,0.3,0.5,0.2,0.8c0,0.3-0.2,0.6-0.4,0.7L32.9,45.8c0,0-0.1,0-0.1,0.1c-0.5,0.4-1.2,0.3-1.5-0.2
	L24.1,36.2z M38,59.2L38,59.2c-0.1,0-0.2,0-0.2,0h-0.1c-0.1,0-0.2,0-0.2,0c-7.7-0.1-14.8-4.3-18.6-11s-3.8-15,0.1-21.6
	s11-10.8,18.8-10.8s14.9,4.1,18.8,10.8s3.9,14.9,0.1,21.6S45.8,59.1,38,59.2L38,59.2z"/>
<path class="st1" d="M61.5,61.9l-0.9,0.2c-0.8,0.2-1.6,0.6-2.2,1.1c-0.6,0.6-1.2,1.2-1.5,2L55.1,69v0c-1.3,2.8-4.2,4.6-7.3,4.6
	l11,19l3.5-10.2c0.2-0.5,0.7-0.8,1.3-0.7l10.5,2L61.5,61.9z"/>
<path class="st3" d="M60.8,60.5l-0.9,0.2c-0.8,0.2-1.6,0.6-2.2,1.1c-0.6,0.6-1.2,1.2-1.5,2l-1.7,3.7v0c-1.3,2.8-4.2,4.6-7.3,4.6
	l11,19L61.6,81c0.2-0.5,0.7-0.8,1.3-0.7l10.5,2L60.8,60.5z"/>
<path class="st3" d="M28.6,72.5c-0.9,0-1.9-0.2-2.8-0.5c-1-0.4-1.9-0.9-2.7-1.6c-0.8-0.7-1.4-1.6-1.8-2.5l-1.7-3.6h0
	c-0.3-0.8-0.9-1.5-1.5-2c-0.7-0.5-1.4-0.9-2.2-1.1l-1.1-0.3L2.3,82.7l10.5-2c0.5-0.1,1.1,0.2,1.3,0.7l3.5,10.2L28.6,72.5z"/>
</svg>
