<svg id="Layer_1" data-name="Layer 1" xmlns="http://www.w3.org/2000/svg" xmlns:xlink="http://www.w3.org/1999/xlink" viewBox="0 0 52 52"><defs><style>.cls-1{fill:none;}.cls-2{clip-path:url(#clip-path);}.cls-3{fill:#ed174c;}.cls-4{fill:#00b35a;}</style><clipPath id="clip-path"><circle id="Ellipse_6" data-name="Ellipse 6" class="cls-1" cx="26" cy="21.78" r="30"/></clipPath></defs><title>design</title><g class="cls-2"><path class="cls-3" d="M13.88,18.06a12.35,12.35,0,0,0,1.31,3.14l.35.58-1.7,1.7,3.38,3.39,1.68-1.69.58.34a12.35,12.35,0,0,0,3.14,1.31l.65.16v2.4h4.8V27l.65-.16a12.35,12.35,0,0,0,3.14-1.31l.64-.34,1.69,1.69,3.39-3.39-1.69-1.69.34-.58a12.35,12.35,0,0,0,1.31-3.14l.16-.65h2.38v-4.8h-2.4L37.52,12a12.14,12.14,0,0,0-1.31-3.13l-.35-.59,1.7-1.69-3.39-3.4L32.5,4.85l-.58-.35a12.35,12.35,0,0,0-3.14-1.31L28.13,3V.63H23.31V3l-.66.16A12.35,12.35,0,0,0,19.51,4.5l-.61.35-1.67-1.7L13.84,6.54l1.69,1.69-.34.58A11.67,11.67,0,0,0,13.88,12l-.17.66H11.32V17.4h2.4ZM25.7,8.69A6.32,6.32,0,1,1,19.38,15,6.32,6.32,0,0,1,25.7,8.69Z"/><path class="cls-4" d="M25.7,32A18.3,18.3,0,0,0,7.4,50.3h0v2.62H44V50.3A18.3,18.3,0,0,0,25.7,32Z"/></g></svg>