<svg id="Layer_1" data-name="Layer 1" xmlns="http://www.w3.org/2000/svg" viewBox="0 0 25 30"><defs><style>.cls-1{fill:#bbb;}</style></defs><title>icons</title><path class="cls-1" d="M7.24,11.7a5.18,5.18,0,0,0,.58,1.4l.15.26-.75.76,1.51,1.5.74-.75.26.15a5.55,5.55,0,0,0,1.4.59l.29.07v1.07h2.13V15.68l.3-.07A5.34,5.34,0,0,0,15.24,15l.29-.15.75.75,1.51-1.5L17,13.36l.15-.26a5.31,5.31,0,0,0,.58-1.39l.08-.3h1V9.28H17.84L17.76,9a4.93,4.93,0,0,0-.58-1.4L17,7.33l.75-.75L16.27,5.06l-.74.76-.26-.16a5.52,5.52,0,0,0-1.4-.58L13.58,5V3.94H11.43V5l-.29.07a5.31,5.31,0,0,0-1.39.58l-.28.16-.74-.76L7.22,6.57,8,7.33l-.15.25A5.18,5.18,0,0,0,7.24,9l-.08.29H6.1v2.14H7.16ZM12.5,7.53a2.82,2.82,0,1,1-2.81,2.81A2.81,2.81,0,0,1,12.5,7.53Z"/><path class="cls-1" d="M12.5,17.91a8.15,8.15,0,0,0-8.15,8.15h16.3a8.15,8.15,0,0,0-8.15-8.15Z"/></svg>