<?xml version="1.0" encoding="utf-8"?>
<!-- Generator: Adobe Illustrator 19.0.0, SVG Export Plug-In . SVG Version: 6.00 Build 0)  -->
<svg version="1.1" id="Layer_1" xmlns="http://www.w3.org/2000/svg" xmlns:xlink="http://www.w3.org/1999/xlink" x="0px" y="0px"
	 viewBox="-88 44 322 414" style="enable-background:new -88 44 322 414;" xml:space="preserve">
<style type="text/css">
	.st0{fill:#999999;}
</style>
<g>
	<path class="st0" d="M206.9,154.9L121,68.8v68.4c0,9.9,8.3,17.7,18.2,17.7L206.9,154.9L206.9,154.9z"/>
	<path class="st0" d="M97,137.3V52.9H-51.3C-66.7,52.9-79,65-79,80.5v340.9c0,15.4,12.3,27.6,27.7,27.6h248.6
		c15.4,0,27.7-12.1,27.7-27.6V178.9h-85.8C116.1,178.9,97,160.4,97,137.3z M-29,273H75c6.6,0,12,5.4,12,12c0,6.6-5.4,12-12,12H-29
		c-6.6,0-12-5.4-12-12C-41,278.3-35.6,273-29,273z M187,345c0,6.6-5.4,12-12,12H-29c-6.6,0-12-5.4-12-12c0-6.6,5.4-12,12-12h204
		C181.6,333,187,338.3,187,345z"/>
</g>
</svg>
