<?xml version="1.0" encoding="utf-8"?>
<!-- Generator: Adobe Illustrator 19.0.0, SVG Export Plug-In . SVG Version: 6.00 Build 0)  -->
<svg version="1.1" id="Layer_1" xmlns="http://www.w3.org/2000/svg" xmlns:xlink="http://www.w3.org/1999/xlink" x="0px" y="0px"
	 viewBox="128 -128 512 512" style="enable-background:new 128 -128 512 512;" xml:space="preserve">
<style type="text/css">
	.st0{fill:#FFFFFF;}
</style>
<g>
	<path class="st0" d="M153.7-128h460.9c13.9,0,25.4,11.5,25.4,25.7v460.9c0,13.9-11.5,25.4-25.4,25.4H153.7
		c-14.2,0-25.7-11.5-25.7-25.4v-460.9C128-116.5,139.5-128,153.7-128L153.7-128z M413.2-60.6c-39.3,5.4-69.6,39-69.6,79.5v58.4
		h-58.4v68h58.4v172.1h69.6V145.4h58.4l8.2-68c-22.1,0-44.5,0-66.5,0V29c0-14.5,11.8-26.3,26.6-26.3H483v-61.7l-37.8-1.5
		C434.7-61.2,423.5-61.8,413.2-60.6L413.2-60.6z"/>
</g>
</svg>
