<?xml version="1.0" encoding="utf-8"?>
<!-- Generator: Adobe Illustrator 19.0.0, SVG Export Plug-In . SVG Version: 6.00 Build 0)  -->
<svg version="1.1" id="livetype" xmlns="http://www.w3.org/2000/svg" xmlns:xlink="http://www.w3.org/1999/xlink" x="0px" y="0px"
	 viewBox="-39 81 119.7 40" style="enable-background:new -39 81 119.7 40;" xml:space="preserve">
<style type="text/css">
	.st0{fill:#A6A6A6;}
	.st1{display:none;}
	.st2{display:inline;}
	.st3{fill:#FFFFFF;}
	.st4{display:inline;fill:#FFFFFF;}
	.st5{fill:#FFFFFF;stroke:#FFFFFF;stroke-width:0.2;stroke-miterlimit:10;}
	.st6{fill:url(#SVGID_1_);}
	.st7{fill:url(#SVGID_2_);}
	.st8{fill:url(#SVGID_3_);}
	.st9{fill:url(#SVGID_4_);}
	.st10{opacity:0.2;enable-background:new    ;}
	.st11{opacity:0.12;enable-background:new    ;}
	.st12{opacity:0.25;fill:#FFFFFF;enable-background:new    ;}
</style>
<title>Download_on_the_App_Store_Badge_US-UK_RGB_blk_4SVG_092917</title>
<g>
	<g>
		<g>
			<path class="st0" d="M71.1,81H-29.5c-0.4,0-0.7,0-1.1,0c-0.3,0-0.6,0-0.9,0c-0.7,0-1.3,0.1-2,0.2c-0.7,0.1-1.3,0.3-1.9,0.6
				c-0.6,0.3-1.1,0.7-1.6,1.2c-0.5,0.5-0.9,1-1.2,1.6c-0.3,0.6-0.5,1.2-0.6,1.9c-0.1,0.7-0.2,1.3-0.2,2c0,0.3,0,0.6,0,0.9v23.1
				c0,0.3,0,0.6,0,0.9c0,0.7,0.1,1.3,0.2,2c0.1,0.7,0.3,1.3,0.6,1.9c0.3,0.6,0.7,1.1,1.2,1.6c0.5,0.5,1,0.9,1.6,1.2
				c0.6,0.3,1.2,0.5,1.9,0.6c0.7,0.1,1.3,0.2,2,0.2c0.3,0,0.6,0,0.9,0c0.4,0,0.7,0,1.1,0H71.1c0.4,0,0.7,0,1.1,0c0.3,0,0.6,0,0.9,0
				c0.7,0,1.3-0.1,2-0.2c0.7-0.1,1.3-0.3,1.9-0.6c0.6-0.3,1.1-0.7,1.6-1.2c0.5-0.5,0.9-1,1.2-1.6c0.3-0.6,0.5-1.2,0.6-1.9
				c0.1-0.7,0.2-1.3,0.2-2c0-0.3,0-0.6,0-0.9c0-0.4,0-0.7,0-1.1V90.5c0-0.4,0-0.7,0-1.1c0-0.3,0-0.6,0-0.9c0-0.7-0.1-1.3-0.2-2
				c-0.1-0.7-0.3-1.3-0.6-1.9c-0.6-1.2-1.6-2.2-2.8-2.8c-0.6-0.3-1.2-0.5-1.9-0.6c-0.7-0.1-1.3-0.2-2-0.2c-0.3,0-0.6,0-0.9,0
				C71.9,81,71.5,81,71.1,81L71.1,81z"/>
			<path d="M-30.6,120.1c-0.3,0-0.6,0-0.9,0c-0.6,0-1.3-0.1-1.9-0.2c-0.6-0.1-1.1-0.3-1.7-0.5c-0.5-0.3-1-0.6-1.4-1
				c-0.4-0.4-0.8-0.9-1-1.4c-0.3-0.5-0.4-1.1-0.5-1.7c-0.1-0.6-0.2-1.2-0.2-1.9c0-0.2,0-0.9,0-0.9V89.4c0,0,0-0.7,0-0.9
				c0-0.6,0.1-1.3,0.2-1.9c0.1-0.6,0.3-1.1,0.5-1.7c0.3-0.5,0.6-1,1-1.4c0.4-0.4,0.9-0.8,1.4-1c0.5-0.3,1.1-0.4,1.7-0.5
				c0.6-0.1,1.2-0.2,1.9-0.2l0.9,0H72.2l0.9,0c0.6,0,1.2,0.1,1.9,0.2c0.6,0.1,1.1,0.3,1.7,0.5c1,0.5,1.9,1.4,2.4,2.4
				c0.3,0.5,0.4,1.1,0.5,1.6c0.1,0.6,0.2,1.3,0.2,1.9c0,0.3,0,0.6,0,0.9c0,0.4,0,0.7,0,1.1v20.9c0,0.4,0,0.7,0,1.1
				c0,0.3,0,0.6,0,0.9c0,0.6-0.1,1.2-0.2,1.9c-0.1,0.6-0.3,1.1-0.5,1.7c-0.3,0.5-0.6,1-1,1.4c-0.4,0.4-0.9,0.8-1.4,1
				c-0.5,0.3-1.1,0.5-1.7,0.5c-0.6,0.1-1.2,0.2-1.9,0.2c-0.3,0-0.6,0-0.9,0l-1.1,0L-30.6,120.1z"/>
		</g>
		<g id="_Group_">
			<g id="_Group_2" class="st1">
				<g id="_Group_3" class="st2">
					<path id="_Path_" class="st3" d="M-14.2,101.3c0-1.7,0.9-3.3,2.4-4.2c-0.9-1.3-2.4-2.1-4-2.2c-1.7-0.2-3.3,1-4.2,1
						c-0.9,0-2.2-1-3.6-1c-1.9,0.1-3.6,1.1-4.5,2.7c-1.9,3.3-0.5,8.3,1.4,11c0.9,1.3,2,2.8,3.4,2.8c1.4-0.1,1.9-0.9,3.6-0.9
						c1.7,0,2.1,0.9,3.6,0.9c1.5,0,2.4-1.3,3.3-2.7c0.7-0.9,1.2-2,1.5-3.1C-13.1,105-14.2,103.2-14.2,101.3z"/>
					<path id="_Path_2" class="st3" d="M-17,93.2c0.8-1,1.2-2.2,1.1-3.5c-1.2,0.1-2.4,0.7-3.2,1.7c-0.8,0.9-1.2,2.1-1.1,3.4
						C-18.9,94.8-17.8,94.2-17,93.2z"/>
				</g>
			</g>
			<g class="st1">
				<path class="st4" d="M3.3,108.1h-4.7l-1.1,3.4h-2l4.5-12.4H2l4.5,12.4h-2L3.3,108.1z M-0.9,106.6h3.8L1,101.1H0.9L-0.9,106.6z"
					/>
				<path class="st4" d="M16.2,107c0,2.8-1.5,4.6-3.8,4.6c-1.2,0.1-2.3-0.6-2.8-1.6h0v4.5H7.6v-12h1.8v1.5h0c0.6-1,1.7-1.6,2.9-1.6
					C14.6,102.3,16.2,104.2,16.2,107z M14.2,107c0-1.8-0.9-3-2.4-3c-1.4,0-2.4,1.2-2.4,3c0,1.8,1,3,2.4,3
					C13.3,110,14.2,108.8,14.2,107z"/>
				<path class="st4" d="M26.1,107c0,2.8-1.5,4.6-3.8,4.6c-1.2,0.1-2.3-0.6-2.8-1.6h0v4.5h-1.9v-12h1.8v1.5h0c0.6-1,1.7-1.6,2.9-1.6
					C24.6,102.3,26.1,104.2,26.1,107z M24.2,107c0-1.8-0.9-3-2.4-3c-1.4,0-2.4,1.2-2.4,3c0,1.8,1,3,2.4,3
					C23.3,110,24.2,108.8,24.2,107L24.2,107z"/>
				<path class="st4" d="M32.7,108c0.1,1.2,1.3,2,3,2c1.6,0,2.7-0.8,2.7-1.9c0-1-0.7-1.5-2.3-1.9l-1.6-0.4c-2.3-0.6-3.3-1.6-3.3-3.3
					c0-2.1,1.9-3.6,4.5-3.6c2.6,0,4.4,1.5,4.5,3.6h-1.9c-0.1-1.2-1.1-2-2.6-2s-2.5,0.8-2.5,1.9c0,0.9,0.7,1.4,2.3,1.8l1.4,0.3
					c2.5,0.6,3.6,1.6,3.6,3.4c0,2.3-1.9,3.8-4.8,3.8c-2.8,0-4.6-1.4-4.7-3.7L32.7,108z"/>
				<path class="st4" d="M44.3,100.3v2.1h1.7v1.5h-1.7v5c0,0.8,0.3,1.1,1.1,1.1c0.2,0,0.4,0,0.6,0v1.5c-0.3,0.1-0.7,0.1-1,0.1
					c-1.8,0-2.5-0.7-2.5-2.4v-5.2h-1.3v-1.5h1.3v-2.1H44.3z"/>
				<path class="st4" d="M47.1,107c0-2.8,1.7-4.6,4.3-4.6c2.6,0,4.3,1.8,4.3,4.6c0,2.9-1.7,4.6-4.3,4.6
					C48.7,111.6,47.1,109.8,47.1,107z M53.8,107c0-2-0.9-3.1-2.4-3.1S49,105,49,107c0,2,0.9,3.1,2.4,3.1S53.8,108.9,53.8,107
					L53.8,107z"/>
				<path class="st4" d="M57.2,102.4H59v1.5h0c0.2-1,1.2-1.7,2.2-1.6c0.2,0,0.4,0,0.6,0.1v1.7c-0.3-0.1-0.6-0.1-0.8-0.1
					c-1,0-1.9,0.8-1.9,1.8c0,0.1,0,0.2,0,0.3v5.4h-1.9L57.2,102.4z"/>
				<path class="st4" d="M70.4,108.8c-0.3,1.6-1.9,2.8-3.9,2.8c-2.6,0-4.3-1.8-4.3-4.6c0-2.8,1.6-4.7,4.2-4.7c2.5,0,4.1,1.7,4.1,4.5
					v0.6h-6.4v0.1c-0.1,1.3,0.8,2.4,2.1,2.6c0.1,0,0.2,0,0.3,0c0.9,0.1,1.8-0.4,2.1-1.3L70.4,108.8z M64.1,106.1h4.5
					c0.1-1.2-0.9-2.2-2.1-2.3c-0.1,0-0.1,0-0.2,0C65.1,103.8,64.1,104.8,64.1,106.1C64.1,106.1,64.1,106.1,64.1,106.1z"/>
			</g>
		</g>
	</g>
	<g id="_Group_4" class="st1">
		<g class="st2">
			<path class="st3" d="M-1.2,89.7c1.5-0.1,2.7,1,2.8,2.4c0,0.2,0,0.3,0,0.5c0,1.9-1,3-2.8,3h-2.2v-6H-1.2z M-2.4,94.9h1.1
				c1,0.1,1.9-0.7,2-1.8c0-0.1,0-0.3,0-0.4c0.1-1-0.6-2-1.6-2.1c-0.1,0-0.2,0-0.4,0h-1.1V94.9z"/>
			<path class="st3" d="M2.7,93.4c-0.1-1.2,0.7-2.2,1.9-2.3C5.8,91,6.8,91.9,6.9,93c0,0.1,0,0.3,0,0.4C7,94.6,6.2,95.7,5,95.8
				c-1.2,0.1-2.2-0.7-2.3-1.9C2.7,93.7,2.7,93.6,2.7,93.4z M6,93.4c0-1-0.4-1.5-1.2-1.5c-0.8,0-1.2,0.6-1.2,1.5c0,1,0.4,1.6,1.2,1.6
				C5.6,95,6,94.4,6,93.4L6,93.4z"/>
			<path class="st3" d="M12.6,95.7h-0.9l-0.9-3.3h-0.1l-0.9,3.3H8.8l-1.2-4.5h0.9l0.8,3.4h0.1l0.9-3.4h0.9l0.9,3.4h0.1l0.8-3.4h0.9
				L12.6,95.7z"/>
			<path class="st3" d="M14.9,91.2h0.9v0.7h0.1c0.2-0.5,0.8-0.8,1.3-0.8c0.8-0.1,1.5,0.5,1.6,1.4c0,0.1,0,0.2,0,0.3v2.9h-0.9V93
				c0-0.7-0.3-1.1-1-1.1c-0.6,0-1.1,0.4-1.1,1c0,0.1,0,0.1,0,0.2v2.6h-0.9L14.9,91.2z"/>
			<path class="st3" d="M20.1,89.4H21v6.3h-0.9V89.4z"/>
			<path class="st3" d="M22.2,93.4c-0.1-1.2,0.7-2.2,1.9-2.3c1.2-0.1,2.2,0.7,2.3,1.9c0,0.1,0,0.3,0,0.4c0.1,1.2-0.7,2.2-1.9,2.3
				s-2.2-0.7-2.3-1.9C22.2,93.7,22.2,93.6,22.2,93.4z M25.6,93.4c0-1-0.4-1.5-1.2-1.5c-0.8,0-1.2,0.6-1.2,1.5c0,1,0.4,1.6,1.2,1.6
				C25.1,95,25.6,94.4,25.6,93.4z"/>
			<path class="st3" d="M27.4,94.4c0-0.8,0.6-1.3,1.7-1.3l1.2-0.1v-0.4c0-0.5-0.3-0.7-0.9-0.7c-0.5,0-0.8,0.2-0.9,0.5h-0.9
				c0.1-0.8,0.8-1.3,1.8-1.3c1.1,0,1.8,0.6,1.8,1.5v3.1h-0.9v-0.6h-0.1c-0.3,0.5-0.8,0.7-1.4,0.7c-0.7,0.1-1.4-0.5-1.5-1.2
				C27.4,94.5,27.4,94.5,27.4,94.4z M30.3,94v-0.4l-1.1,0.1c-0.6,0-0.9,0.3-0.9,0.6c0,0.4,0.4,0.6,0.8,0.6
				C29.7,95.1,30.2,94.7,30.3,94C30.3,94.1,30.3,94.1,30.3,94z"/>
			<path class="st3" d="M32.3,93.4c0-1.4,0.7-2.3,1.9-2.3c0.6,0,1.1,0.3,1.4,0.8h0.1v-2.5h0.9v6.3h-0.9V95h-0.1
				c-0.3,0.5-0.8,0.8-1.4,0.8C33.1,95.8,32.3,94.9,32.3,93.4z M33.3,93.4c0,1,0.5,1.5,1.2,1.5c0.7,0,1.2-0.6,1.2-1.5
				c0-0.9-0.5-1.5-1.2-1.5C33.7,91.9,33.3,92.5,33.3,93.4L33.3,93.4z"/>
			<path class="st3" d="M40.2,93.4c-0.1-1.2,0.7-2.2,1.9-2.3c1.2-0.1,2.2,0.7,2.3,1.9c0,0.1,0,0.3,0,0.4c0.1,1.2-0.7,2.2-1.9,2.3
				c-1.2,0.1-2.2-0.7-2.3-1.9C40.2,93.7,40.2,93.6,40.2,93.4z M43.6,93.4c0-1-0.4-1.5-1.2-1.5c-0.8,0-1.2,0.6-1.2,1.5
				c0,1,0.4,1.6,1.2,1.6C43.1,95,43.6,94.4,43.6,93.4z"/>
			<path class="st3" d="M45.7,91.2h0.9v0.7h0.1c0.2-0.5,0.8-0.8,1.3-0.8c0.8-0.1,1.5,0.5,1.6,1.4c0,0.1,0,0.2,0,0.3v2.9h-0.9V93
				c0-0.7-0.3-1.1-1-1.1c-0.6,0-1.1,0.4-1.1,1c0,0.1,0,0.1,0,0.2v2.6h-0.9V91.2z"/>
			<path class="st3" d="M54.5,90.1v1.1h1V92h-1v2.3c0,0.5,0.2,0.7,0.6,0.7c0.1,0,0.2,0,0.3,0v0.7c-0.2,0-0.3,0-0.5,0
				c-1,0-1.4-0.3-1.4-1.2V92h-0.7v-0.7h0.7v-1.1H54.5z"/>
			<path class="st3" d="M56.7,89.4h0.9v2.5h0.1c0.2-0.5,0.8-0.9,1.4-0.8c0.8,0,1.5,0.6,1.6,1.4c0,0.1,0,0.2,0,0.3v2.9h-0.9V93
				c0-0.7-0.3-1.1-1-1.1c-0.6,0-1.1,0.4-1.1,1c0,0.1,0,0.1,0,0.2v2.6h-0.9L56.7,89.4z"/>
			<path class="st3" d="M65.8,94.5c-0.2,0.8-1.1,1.4-2,1.3c-1.1,0-2.1-0.9-2.1-2c0-0.1,0-0.2,0-0.3c-0.2-1.1,0.6-2.2,1.8-2.3
				c0.1,0,0.2,0,0.3,0c1.3,0,2,0.9,2,2.3v0.3h-3.2v0c-0.1,0.7,0.4,1.2,1.1,1.3c0,0,0.1,0,0.1,0c0.4,0.1,0.9-0.2,1.1-0.5L65.8,94.5z
				 M62.6,93h2.3c0-0.6-0.4-1.1-1-1.2c0,0-0.1,0-0.1,0C63.2,91.9,62.6,92.4,62.6,93C62.6,93,62.6,93,62.6,93L62.6,93z"/>
		</g>
	</g>
</g>
<g>
	<path class="st5" d="M2.9,93.4c0,0.8-0.2,1.5-0.7,2c-0.6,0.6-1.3,0.9-2.2,0.9c-0.9,0-1.6-0.3-2.2-0.9c-0.6-0.6-0.9-1.3-0.9-2.2
		c0-0.9,0.3-1.6,0.9-2.2c0.6-0.6,1.3-0.9,2.2-0.9c0.4,0,0.8,0.1,1.2,0.3c0.4,0.2,0.7,0.4,0.9,0.7l-0.5,0.5c-0.4-0.5-0.9-0.7-1.6-0.7
		c-0.6,0-1.2,0.2-1.6,0.7c-0.5,0.4-0.7,1-0.7,1.7c0,0.7,0.2,1.3,0.7,1.7c0.5,0.4,1,0.7,1.6,0.7c0.7,0,1.2-0.2,1.7-0.7
		c0.3-0.3,0.5-0.7,0.5-1.2h-2.2V93h2.9C2.9,93.1,2.9,93.3,2.9,93.4z"/>
	<path class="st5" d="M7.5,90.9H4.8v1.9h2.5v0.7H4.8v1.9h2.7v0.7H4v-6h3.5V90.9z"/>
	<path class="st5" d="M10.7,96.2H10v-5.3H8.3v-0.7h4.1v0.7h-1.7V96.2z"/>
	<path class="st5" d="M15.4,96.2v-6h0.8v6H15.4z"/>
	<path class="st5" d="M19.6,96.2h-0.8v-5.3h-1.7v-0.7h4.1v0.7h-1.7V96.2z"/>
	<path class="st5" d="M29.1,95.4c-0.6,0.6-1.3,0.9-2.2,0.9c-0.9,0-1.6-0.3-2.2-0.9c-0.6-0.6-0.9-1.3-0.9-2.2s0.3-1.6,0.9-2.2
		c0.6-0.6,1.3-0.9,2.2-0.9c0.9,0,1.6,0.3,2.2,0.9c0.6,0.6,0.9,1.3,0.9,2.2C30,94,29.7,94.8,29.1,95.4z M25.2,94.9
		c0.4,0.4,1,0.7,1.6,0.7c0.6,0,1.2-0.2,1.6-0.7c0.4-0.4,0.7-1,0.7-1.7c0-0.7-0.2-1.3-0.7-1.7c-0.4-0.4-1-0.7-1.6-0.7
		c-0.6,0-1.2,0.2-1.6,0.7c-0.4,0.4-0.7,1-0.7,1.7C24.6,93.9,24.8,94.4,25.2,94.9z"/>
	<path class="st5" d="M31,96.2v-6H32l2.9,4.7h0l0-1.2v-3.5h0.8v6h-0.8l-3.1-4.9h0l0,1.2v3.7H31z"/>
</g>
<path class="st3" d="M16,104.1c-1.7,0-3.1,1.3-3.1,3.1c0,1.8,1.4,3.1,3.1,3.1c1.7,0,3.1-1.3,3.1-3.1C19.2,105.4,17.7,104.1,16,104.1
	z M16,109.1c-0.9,0-1.8-0.8-1.8-1.9c0-1.1,0.8-1.9,1.8-1.9c0.9,0,1.8,0.8,1.8,1.9C17.8,108.3,17,109.1,16,109.1z M9.2,104.1
	c-1.7,0-3.1,1.3-3.1,3.1c0,1.8,1.4,3.1,3.1,3.1c1.7,0,3.1-1.3,3.1-3.1C12.3,105.4,10.9,104.1,9.2,104.1z M9.2,109.1
	c-0.9,0-1.8-0.8-1.8-1.9c0-1.1,0.8-1.9,1.8-1.9c0.9,0,1.8,0.8,1.8,1.9C10.9,108.3,10.1,109.1,9.2,109.1z M1,105v1.3h3.2
	c-0.1,0.7-0.3,1.3-0.7,1.7c-0.5,0.5-1.2,1-2.5,1c-2,0-3.5-1.6-3.5-3.5s1.5-3.5,3.5-3.5c1.1,0,1.8,0.4,2.4,0.9l0.9-0.9
	c-0.8-0.8-1.8-1.3-3.3-1.3c-2.7,0-4.9,2.2-4.9,4.9c0,2.7,2.3,4.9,4.9,4.9c1.4,0,2.5-0.5,3.4-1.4c0.9-0.9,1.1-2.1,1.1-3.1
	c0-0.3,0-0.6-0.1-0.8H1z M34.3,106c-0.3-0.7-1.1-2-2.7-2c-1.6,0-3,1.3-3,3.1c0,1.8,1.3,3.1,3.1,3.1c1.4,0,2.3-0.9,2.6-1.4l-1.1-0.7
	c-0.4,0.5-0.8,0.9-1.5,0.9c-0.7,0-1.2-0.3-1.5-0.9l4.2-1.7L34.3,106z M30.1,107.1c0-1.2,0.9-1.8,1.6-1.8c0.5,0,1,0.3,1.2,0.7
	L30.1,107.1z M26.7,110.1H28v-9.2h-1.4V110.1z M24.4,104.7L24.4,104.7c-0.4-0.4-0.9-0.7-1.7-0.7c-1.6,0-3,1.4-3,3.1
	c0,1.8,1.4,3.1,3,3.1c0.7,0,1.3-0.3,1.6-0.7h0v0.5c0,1.2-0.6,1.8-1.7,1.8c-0.8,0-1.4-0.6-1.6-1.1l-1.2,0.5c0.3,0.8,1.3,1.8,2.8,1.8
	c1.6,0,3-0.9,3-3.3v-5.6h-1.3V104.7z M22.8,109.1c-0.9,0-1.7-0.8-1.7-1.9c0-1.1,0.8-1.9,1.7-1.9c0.9,0,1.7,0.8,1.7,1.9
	C24.5,108.3,23.8,109.1,22.8,109.1z M40.8,100.9h-3.3v9.2h1.4v-3.5h1.9c1.5,0,3-1.1,3-2.9S42.3,100.9,40.8,100.9z M40.8,105.4h-2
	v-3.2h2c1,0,1.6,0.8,1.6,1.6C42.4,104.5,41.8,105.4,40.8,105.4z M49.3,104c-1,0-2,0.4-2.4,1.4l1.2,0.5c0.3-0.5,0.7-0.7,1.3-0.7
	c0.7,0,1.4,0.4,1.4,1.2v0.1c-0.2-0.1-0.8-0.4-1.4-0.4c-1.3,0-2.7,0.7-2.7,2.1c0,1.2,1.1,2,2.3,2c0.9,0,1.4-0.4,1.8-0.9h0v0.7h1.3
	v-3.5C52.1,104.9,50.9,104,49.3,104z M49.1,109.1c-0.4,0-1.1-0.2-1.1-0.8c0-0.7,0.8-1,1.5-1c0.6,0,0.9,0.1,1.3,0.3
	C50.7,108.5,49.9,109.1,49.1,109.1z M56.9,104.2l-1.6,4h0l-1.6-4h-1.5l2.4,5.6l-1.4,3.1h1.4l3.8-8.7H56.9z M44.6,110.1h1.4v-9.2
	h-1.4V110.1z"/>
<g>
	
		<linearGradient id="SVGID_1_" gradientUnits="userSpaceOnUse" x1="-18.9919" y1="113.957" x2="-35.7743" y2="97.1746" gradientTransform="matrix(1 0 0 -1 0 204)">
		<stop  offset="0" style="stop-color:#00A0FF"/>
		<stop  offset="6.574450e-003" style="stop-color:#00A1FF"/>
		<stop  offset="0.2601" style="stop-color:#00BEFF"/>
		<stop  offset="0.5122" style="stop-color:#00D2FF"/>
		<stop  offset="0.7604" style="stop-color:#00DFFF"/>
		<stop  offset="1" style="stop-color:#00E3FF"/>
	</linearGradient>
	<path class="st6" d="M-30.4,88.9c-0.3,0.3-0.5,0.8-0.5,1.4v22.1c0,0.6,0.2,1.1,0.5,1.4l0.1,0.1l12.4-12.4v-0.1v-0.1L-30.4,88.9
		L-30.4,88.9z"/>
	
		<linearGradient id="SVGID_2_" gradientUnits="userSpaceOnUse" x1="-6.9573" y1="102.6652" x2="-31.1542" y2="102.6652" gradientTransform="matrix(1 0 0 -1 0 204)">
		<stop  offset="0" style="stop-color:#FFE000"/>
		<stop  offset="0.4087" style="stop-color:#FFBD00"/>
		<stop  offset="0.7754" style="stop-color:#FFA500"/>
		<stop  offset="1" style="stop-color:#FF9C00"/>
	</linearGradient>
	<path class="st7" d="M-13.8,105.6l-4.1-4.1v-0.1v-0.1l4.1-4.1l0.1,0.1l4.9,2.8c1.4,0.8,1.4,2.1,0,2.9L-13.8,105.6L-13.8,105.6z"/>
	
		<linearGradient id="SVGID_3_" gradientUnits="userSpaceOnUse" x1="-15.9647" y1="100.3706" x2="-38.723" y2="77.6123" gradientTransform="matrix(1 0 0 -1 0 204)">
		<stop  offset="0" style="stop-color:#FF3A44"/>
		<stop  offset="1" style="stop-color:#C31162"/>
	</linearGradient>
	<path class="st8" d="M-13.7,105.6l-4.2-4.2l-12.5,12.5c0.5,0.5,1.2,0.5,2.1,0.1L-13.7,105.6"/>
	
		<linearGradient id="SVGID_4_" gradientUnits="userSpaceOnUse" x1="-33.4943" y1="122.4905" x2="-23.3318" y2="112.328" gradientTransform="matrix(1 0 0 -1 0 204)">
		<stop  offset="0" style="stop-color:#32A071"/>
		<stop  offset="6.850000e-002" style="stop-color:#2DA771"/>
		<stop  offset="0.4762" style="stop-color:#15CF74"/>
		<stop  offset="0.8009" style="stop-color:#06E775"/>
		<stop  offset="1" style="stop-color:#00F076"/>
	</linearGradient>
	<path class="st9" d="M-13.7,97.1l-14.6-8.3c-0.9-0.5-1.6-0.4-2.1,0.1l12.5,12.5L-13.7,97.1z"/>
	<g>
		<path class="st10" d="M-13.8,105.5l-14.5,8.2c-0.8,0.5-1.5,0.4-2,0l0,0l-0.1,0.1l0,0l0.1,0.1l0,0c0.5,0.4,1.2,0.5,2,0L-13.8,105.5
			L-13.8,105.5z"/>
		<path class="st11" d="M-30.4,113.7c-0.3-0.3-0.5-0.8-0.5-1.4v0.1c0,0.6,0.2,1.1,0.5,1.4V113.7L-30.4,113.7z"/>
	</g>
	<path class="st11" d="M-8.8,102.6l-5,2.8l0.1,0.1l4.9-2.8c0.7-0.4,1-0.9,1-1.4l0,0C-7.8,101.8-8.1,102.3-8.8,102.6z"/>
	<path class="st12" d="M-28.3,89L-8.8,100c0.6,0.4,1,0.8,1,1.3l0,0c0-0.5-0.3-1-1-1.4l-19.5-11.1c-1.4-0.8-2.5-0.1-2.5,1.5v0.1
		C-30.8,88.8-29.7,88.2-28.3,89z"/>
</g>
</svg>
