<?xml version="1.0" encoding="utf-8"?>
<!-- Generator: Adobe Illustrator 19.0.0, SVG Export Plug-In . SVG Version: 6.00 Build 0)  -->
<svg version="1.1" id="Layer_1" xmlns="http://www.w3.org/2000/svg" xmlns:xlink="http://www.w3.org/1999/xlink" x="0px" y="0px"
	 viewBox="0 0 600 600" style="enable-background:new 0 0 600 600;" xml:space="preserve">
<g id="Layer_1_1_">
	<polyline id="XMLID_3_" points="288.3,11.3 299.7,0 311,11.3 	"/>
	<rect id="XMLID_1_" x="297.5" y="8" width="5" height="582"/>
	<polyline id="XMLID_5_" points="310.3,588.7 299,600 287.7,588.7 	"/>
</g>
<g id="Layer_1_2_">
	<polyline id="XMLID_12_" points="10.7,311.1 -0.6,299.6 10.7,288.4 	"/>
	<rect id="XMLID_11_" x="7.3" y="296.9" width="294.3" height="5"/>
</g>
<g id="Layer_2">
	
		<rect id="XMLID_6_" x="299.8" y="-114.6" transform="matrix(-0.7071 0.7071 -0.7071 -0.7071 729.7243 302.1676)" width="5" height="833.7"/>
	<polyline id="XMLID_4_" points="600,584 600,600 584,600 	"/>
	<polyline id="XMLID_2_" points="1.7,16 1.7,0 17.7,0 	"/>
</g>
<g id="Layer_2_copy">
	
		<rect id="XMLID_9_" x="297.7" y="-119.9" transform="matrix(0.7071 0.7071 -0.7071 0.7071 298.3523 -125.0719)" width="5" height="835.1"/>
	<polyline id="XMLID_7_" points="584,0 600,0 600,16 	"/>
	<polyline id="XMLID_10_" points="16,600 0,600 0,584 	"/>
</g>
</svg>
