<?xml version="1.0" encoding="utf-8"?>
<!-- Generator: Adobe Illustrator 19.0.0, SVG Export Plug-In . SVG Version: 6.00 Build 0)  -->
<svg version="1.1" id="Layer_1" xmlns="http://www.w3.org/2000/svg" xmlns:xlink="http://www.w3.org/1999/xlink" x="0px" y="0px"
	 viewBox="-60 56.8 377.8 389.2" style="enable-background:new -60 56.8 377.8 389.2;" xml:space="preserve">
<style type="text/css">
	.st0{fill:#EDD539;}
</style>
<polygon id="XMLID_10_" class="st0" points="34.4,137.9 30.4,157.1 26.3,137.9 21.6,137.9 28,166.7 32.5,166.7 38.9,137.9 "/>
<polygon id="XMLID_9_" class="st0" points="40.5,129.9 42.7,118.9 37.8,118.9 35.6,129.9 "/>
<polygon id="XMLID_8_" class="st0" points="24.7,129.9 22.5,118.9 17.7,118.9 19.9,129.9 "/>
<title>logo</title>
<polygon id="XMLID_7_" class="st0" points="35.6,361.3 31.6,380.5 27.5,361.3 22.8,361.3 29.3,390.2 33.7,390.2 40.1,361.3 "/>
<polygon id="XMLID_6_" class="st0" points="41.7,353.3 43.9,342.3 39.1,342.3 36.9,353.3 "/>
<polygon id="XMLID_5_" class="st0" points="26,353.3 23.8,342.3 18.9,342.3 21.1,353.3 "/>
<title>logo</title>
<polygon id="XMLID_4_" class="st0" points="232.9,242.2 229,261.4 224.9,242.2 220.1,242.2 226.6,271 231.1,271 237.4,242.2 "/>
<polygon id="XMLID_3_" class="st0" points="239.1,234.2 241.3,223.2 236.4,223.2 234.2,234.2 "/>
<polygon id="XMLID_2_" class="st0" points="223.3,234.2 221.1,223.2 216.3,223.2 218.4,234.2 "/>
</svg>
